<mxfile host="Electron" agent="Mozilla/5.0 (X11; Linux x86_64) AppleWebKit/537.36 (KHTML, like Gecko) draw.io/26.0.3 Chrome/130.0.6723.137 Electron/33.2.1 Safari/537.36" version="26.0.3">
  <diagram name="Strona-1" id="UjXCVasWLxkMrWe1ADRP">
    <mxGraphModel dx="3585" dy="2098" grid="0" gridSize="10" guides="1" tooltips="1" connect="1" arrows="1" fold="1" page="1" pageScale="1" pageWidth="2336" pageHeight="1654" math="0" shadow="0">
      <root>
        <mxCell id="0" />
        <mxCell id="1" parent="0" />
        <mxCell id="UVYFk7r7LEseW1YD5qGI-1" value="&lt;blockquote style=&quot;margin: 0 0 0 40px; border: none; padding: 0px;&quot;&gt;&lt;blockquote style=&quot;margin: 0 0 0 40px; border: none; padding: 0px;&quot;&gt;&lt;blockquote style=&quot;margin: 0 0 0 40px; border: none; padding: 0px;&quot;&gt;&lt;blockquote style=&quot;margin: 0 0 0 40px; border: none; padding: 0px;&quot;&gt;&lt;div&gt;&lt;b style=&quot;font-size: 40px; background-color: transparent; color: light-dark(rgb(0, 0, 0), rgb(255, 255, 255));&quot;&gt;Prompt structure&lt;/b&gt;&lt;/div&gt;&lt;/blockquote&gt;&lt;/blockquote&gt;&lt;/blockquote&gt;&lt;/blockquote&gt;" style="text;html=1;align=left;verticalAlign=top;whiteSpace=wrap;rounded=1;strokeColor=#000000;fillColor=#fff2cc;strokeWidth=2;gradientColor=#ffd966;" parent="1" vertex="1">
          <mxGeometry x="403" y="12" width="1600" height="512" as="geometry" />
        </mxCell>
        <mxCell id="UVYFk7r7LEseW1YD5qGI-2" value="&lt;b style=&quot;font-size: 36px; background-color: transparent; color: light-dark(rgb(0, 0, 0), rgb(255, 255, 255));&quot;&gt;Instruction for a model&lt;/b&gt;&lt;br&gt;&lt;blockquote style=&quot;margin: 0 0 0 40px; border: none; padding: 0px;&quot;&gt;&lt;div&gt;&lt;br&gt;&lt;/div&gt;&lt;/blockquote&gt;" style="text;html=1;align=center;verticalAlign=middle;whiteSpace=wrap;rounded=1;strokeColor=#82b366;fillColor=#d5e8d4;gradientColor=#97d077;" parent="1" vertex="1">
          <mxGeometry x="447" y="132" width="460" height="139" as="geometry" />
        </mxCell>
        <mxCell id="UVYFk7r7LEseW1YD5qGI-7" value="&lt;font style=&quot;font-size: 36px;&quot;&gt;&lt;b style=&quot;&quot;&gt;Anonymized&lt;/b&gt;&lt;/font&gt;&lt;div&gt;&lt;font style=&quot;font-size: 36px;&quot;&gt;&lt;b style=&quot;&quot;&gt;In-context examples&lt;/b&gt;&lt;/font&gt;&lt;b style=&quot;background-color: transparent; color: light-dark(rgb(0, 0, 0), rgb(255, 255, 255));&quot;&gt;&lt;span style=&quot;background-color: transparent; color: light-dark(rgba(0, 0, 0, 0), rgba(0, 0, 0, 0)); font-family: monospace; font-size: 0px; text-wrap-mode: nowrap;&quot;&gt;%3CmxGraphModel%3E%3Croot%3E%3CmxCell%20id%3D%220%22%2F%3E%3CmxCell%20id%3D%221%22%20parent%3D%220%22%2F%3E%3CmxCell%20id%3D%222%22%20value%3D%22%26lt%3Bfont%20style%3D%26quot%3Bfont-size%3A%2036px%3B%26quot%3B%26gt%3B%26lt%3Bb%20style%3D%26quot%3B%26quot%3B%26gt%3BSystem%20Message%26lt%3B%2Fb%26gt%3B%26lt%3B%2Ffont%26gt%3B%26lt%3Bdiv%26gt%3B%26lt%3Bdiv%26gt%3B%26lt%3Bfont%20style%3D%26quot%3Bfont-size%3A%2024px%3B%26quot%3B%26gt%3BYou%20are%20a%20logician%20with%20a%20background%20in%20mathematics%20that%20translates%20natural%20language%26amp%3Bnbsp%3B%26lt%3B%2Ffont%26gt%3B%26lt%3Bspan%20style%3D%26quot%3Bfont-size%3A%2024px%3B%20background-color%3A%20transparent%3B%20color%3A%20light-dark(rgb(0%2C%200%2C%200)%2C%20rgb(255%2C%20255%2C%20255))%3B%26quot%3B%26gt%3Breasoning%20text%20to%20Python3%20code%20so%20that%20these%20natural%20language%20reasoning%20problems%20can%20be%20solved.%26lt%3B%2Fspan%26gt%3B%26lt%3B%2Fdiv%26gt%3B%26lt%3Bdiv%26gt%3B%26lt%3Bfont%20style%3D%26quot%3Bfont-size%3A%2024px%3B%26quot%3B%26gt%3BDuring%20the%20translation%2C%20please%20pay%20close%20attention%20to%20defining%20variables%20and%20rules.%26lt%3B%2Ffont%26gt%3B%26lt%3B%2Fdiv%26gt%3B%26lt%3Bdiv%26gt%3B%26lt%3Bfont%20style%3D%26quot%3Bfont-size%3A%2024px%3B%26quot%3B%26gt%3BDo%20not%20add%20any%20comments%20from%20you.%26lt%3B%2Ffont%26gt%3B%26lt%3B%2Fdiv%26gt%3B%26lt%3Bdiv%26gt%3B%26lt%3Bfont%20style%3D%26quot%3Bfont-size%3A%2024px%3B%26quot%3B%26gt%3BBe%20guided%20by%20the%20following%20example%3A%26lt%3B%2Ffont%26gt%3B%26lt%3B%2Fdiv%26gt%3B%26lt%3B%2Fdiv%26gt%3B%22%20style%3D%22text%3Bhtml%3D1%3Balign%3Dleft%3BverticalAlign%3Dtop%3BwhiteSpace%3Dwrap%3Brounded%3D0%3B%22%20vertex%3D%221%22%20parent%3D%221%22%3E%3CmxGeometry%20x%3D%22497%22%20y%3D%22238%22%20width%3D%22740%22%20height%3D%22263%22%20as%3D%22geometry%22%2F%3E%3C%2FmxCell%3E%3C%2Froot%3E%3C%2FmxGraphModel%3E&lt;/span&gt;&lt;/b&gt;&lt;/div&gt;" style="text;html=1;align=center;verticalAlign=middle;whiteSpace=wrap;rounded=1;strokeColor=#6c8ebf;fillColor=#dae8fc;gradientColor=#7ea6e0;" parent="1" vertex="1">
          <mxGeometry x="979" y="121" width="443" height="150" as="geometry" />
        </mxCell>
        <mxCell id="UVYFk7r7LEseW1YD5qGI-8" value="&lt;font style=&quot;font-size: 36px;&quot;&gt;&lt;b style=&quot;&quot;&gt;Corresponding natural language premises&lt;/b&gt;&lt;/font&gt;&lt;span style=&quot;background-color: transparent; text-wrap-mode: nowrap; color: light-dark(rgba(0, 0, 0, 0), rgba(0, 0, 0, 0)); font-family: monospace; font-size: 0px;&quot;&gt;%3CmxGraphModel%3E%3Croot%3E%3CmxCell%20id%3D%220%22%2F%3E%3CmxCell%20id%3D%221%22%20parent%3D%220%22%2F%3E%3CmxCell%20id%3D%222%22%20value%3D%22%26lt%3Bfont%20style%3D%26quot%3Bfont-size%3A%2036px%3B%26quot%3B%26gt%3B%26lt%3Bb%20style%3D%26quot%3B%26quot%3B%26gt%3BSystem%20Message%26lt%3B%2Fb%26gt%3B%26lt%3B%2Ffont%26gt%3B%26lt%3Bdiv%26gt%3B%26lt%3Bdiv%26gt%3B%26lt%3Bfont%20style%3D%26quot%3Bfont-size%3A%2024px%3B%26quot%3B%26gt%3BYou%20are%20a%20logician%20with%20a%20background%20in%20mathematics%20that%20translates%20natural%20language%26amp%3Bnbsp%3B%26lt%3B%2Ffont%26gt%3B%26lt%3Bspan%20style%3D%26quot%3Bfont-size%3A%2024px%3B%20background-color%3A%20transparent%3B%20color%3A%20light-dark(rgb(0%2C%200%2C%200)%2C%20rgb(255%2C%20255%2C%20255))%3B%26quot%3B%26gt%3Breasoning%20text%20to%20Python3%20code%20so%20that%20these%20natural%20language%20reasoning%20problems%20can%20be%20solved.%26lt%3B%2Fspan%26gt%3B%26lt%3B%2Fdiv%26gt%3B%26lt%3Bdiv%26gt%3B%26lt%3Bfont%20style%3D%26quot%3Bfont-size%3A%2024px%3B%26quot%3B%26gt%3BDuring%20the%20translation%2C%20please%20pay%20close%20attention%20to%20defining%20variables%20and%20rules.%26lt%3B%2Ffont%26gt%3B%26lt%3B%2Fdiv%26gt%3B%26lt%3Bdiv%26gt%3B%26lt%3Bfont%20style%3D%26quot%3Bfont-size%3A%2024px%3B%26quot%3B%26gt%3BDo%20not%20add%20any%20comments%20from%20you.%26lt%3B%2Ffont%26gt%3B%26lt%3B%2Fdiv%26gt%3B%26lt%3Bdiv%26gt%3B%26lt%3Bfont%20style%3D%26quot%3Bfont-size%3A%2024px%3B%26quot%3B%26gt%3BBe%20guided%20by%20the%20following%20example%3A%26lt%3B%2Ffont%26gt%3B%26lt%3B%2Fdiv%26gt%3B%26lt%3B%2Fdiv%26gt%3B%22%20style%3D%22text%3Bhtml%3D1%3Balign%3Dleft%3BverticalAlign%3Dtop%3BwhiteSpace%3Dwrap%3Brounded%3D0%3B%22%20vertex%3D%221%22%20parent%3D%221%22%3E%3CmxGeometry%20x%3D%22497%22%20y%3D%22238%22%20width%3D%22740%22%20height%3D%22263%22%20as%3D%22geometry%22%2F%3E%3C%2FmxCell%3E%3C%2Froot%3E%3C%2FmxGraphModel%3E&lt;/span&gt;" style="text;html=1;align=center;verticalAlign=middle;whiteSpace=wrap;rounded=1;strokeColor=#996185;fillColor=#e6d0de;gradientColor=#d5739d;" parent="1" vertex="1">
          <mxGeometry x="1543.5" y="126" width="390" height="159" as="geometry" />
        </mxCell>
        <mxCell id="UVYFk7r7LEseW1YD5qGI-13" value="&lt;span style=&quot;font-size: 36px;&quot;&gt;&lt;b&gt;Python&lt;/b&gt;&lt;/span&gt;&lt;div&gt;&lt;span style=&quot;font-size: 36px;&quot;&gt;&lt;b&gt;implementation&lt;/b&gt;&lt;/span&gt;&lt;/div&gt;&lt;div&gt;&lt;b style=&quot;font-size: 36px; background-color: transparent; color: light-dark(rgb(0, 0, 0), rgb(255, 255, 255));&quot;&gt;of&amp;nbsp;&lt;/b&gt;&lt;b style=&quot;font-size: 36px; background-color: transparent; color: light-dark(rgb(0, 0, 0), rgb(255, 255, 255));&quot;&gt;premises&lt;/b&gt;&lt;/div&gt;" style="text;html=1;align=center;verticalAlign=middle;whiteSpace=wrap;rounded=1;strokeColor=#6c8ebf;fillColor=#dae8fc;gradientColor=#7ea6e0;" parent="1" vertex="1">
          <mxGeometry x="1528" y="311" width="447" height="166" as="geometry" />
        </mxCell>
        <mxCell id="UVYFk7r7LEseW1YD5qGI-14" value="&lt;blockquote style=&quot;margin: 0 0 0 40px; border: none; padding: 0px;&quot;&gt;&lt;div&gt;&lt;div&gt;&lt;b&gt;&lt;font style=&quot;font-size: 32px;&quot;&gt;Runtime Error&lt;/font&gt;&lt;/b&gt;&lt;/div&gt;&lt;div&gt;&lt;span style=&quot;background-color: transparent; font-size: 32px;&quot;&gt;&lt;b&gt;Code after execution returns the following error&lt;/b&gt;&lt;/span&gt;&lt;b&gt;&lt;font style=&quot;font-size: 32px;&quot;&gt;&amp;nbsp;&lt;/font&gt;&lt;/b&gt;&lt;/div&gt;&lt;/div&gt;&lt;div&gt;&lt;div&gt;&lt;font style=&quot;font-size: 32px;&quot;&gt;Traceback (most recent call last):&lt;/font&gt;&lt;/div&gt;&lt;/div&gt;&lt;div&gt;&lt;div&gt;&lt;font style=&quot;font-size: 32px;&quot;&gt;&amp;nbsp; File &quot;New_val_Adapt_Task2_outputs_python_no_final_rule/Llama-8/2/python_code/2_output_python.py&quot;, line 18, in &amp;lt;module&amp;gt;&lt;/font&gt;&lt;/div&gt;&lt;/div&gt;&lt;div&gt;&lt;div&gt;&lt;font style=&quot;font-size: 32px;&quot;&gt;&amp;nbsp; &amp;nbsp; print(r3(4270.1, 2362.5, 2.1, 0.3, 1.0, 0.7))&lt;/font&gt;&lt;/div&gt;&lt;/div&gt;&lt;div&gt;&lt;div&gt;&lt;font style=&quot;font-size: 32px;&quot;&gt;&amp;nbsp; File &quot;New_val_Adapt_Task2_outputs_python_no_final_rule/Llama-8/2/python_code/2_output_python.py&quot;, line 16, in r3&lt;/font&gt;&lt;/div&gt;&lt;/div&gt;&lt;div&gt;&lt;div&gt;&lt;font style=&quot;font-size: 32px;&quot;&gt;&amp;nbsp; &amp;nbsp; return not(r1(arg1, arg2) and r2(arg3, arg4, arg5, arg6)), r1(arg1, arg2), r2(arg3, arg4, arg5, arg6)&lt;/font&gt;&lt;/div&gt;&lt;/div&gt;&lt;div&gt;&lt;div&gt;&lt;b&gt;&lt;font style=&quot;font-size: 32px;&quot;&gt;TypeError: r2() takes 3 positional arguments but 4 were given&lt;/font&gt;&lt;/b&gt;&lt;/div&gt;&lt;/div&gt;&lt;/blockquote&gt;" style="text;html=1;align=left;verticalAlign=top;rounded=1;strokeColor=#000000;whiteSpace=wrap;fillColor=#e6d0de;fontSize=24;gradientColor=#d5739d;strokeWidth=2;" parent="1" vertex="1">
          <mxGeometry x="49" y="1026" width="1001" height="548" as="geometry" />
        </mxCell>
        <mxCell id="UVYFk7r7LEseW1YD5qGI-15" value="&lt;blockquote style=&quot;margin: 0 0 0 40px; border: none; padding: 0px;&quot;&gt;&lt;div&gt;&lt;div&gt;&lt;b&gt;&lt;font style=&quot;font-size: 32px;&quot;&gt;Syntax Error&amp;nbsp;&lt;/font&gt;&lt;/b&gt;&lt;/div&gt;&lt;/div&gt;&lt;div&gt;&lt;div&gt;&lt;b&gt;&lt;font style=&quot;font-size: 32px;&quot;&gt;Syntax evaluation returns the following error:&lt;/font&gt;&lt;/b&gt;&lt;/div&gt;&lt;div&gt;&lt;font style=&quot;font-size: 32px;&quot;&gt;&amp;nbsp; File &quot;/home/obywatelfg/Doktorat/Badania/Logic-LLM/LLM-Python/output_python.py&quot;, line 5&lt;/font&gt;&lt;/div&gt;&lt;div&gt;&lt;font style=&quot;font-size: 32px;&quot;&gt;&amp;nbsp; &amp;nbsp; def r4(axle\_1\_load: int) -&amp;gt; bool:&lt;/font&gt;&lt;/div&gt;&lt;div&gt;&lt;font style=&quot;font-size: 32px;&quot;&gt;&amp;nbsp; &amp;nbsp; &amp;nbsp; &amp;nbsp; &amp;nbsp; &amp;nbsp; &amp;nbsp; &amp;nbsp; ^&lt;/font&gt;&lt;/div&gt;&lt;div&gt;&lt;font style=&quot;font-size: 32px;&quot;&gt;SyntaxError: unexpected character after line continuation character&lt;/font&gt;&lt;/div&gt;&lt;/div&gt;&lt;/blockquote&gt;" style="text;html=1;align=left;verticalAlign=top;rounded=1;strokeColor=#000000;whiteSpace=wrap;fillColor=#d5e8d4;fontSize=24;gradientColor=#97d077;strokeWidth=2;" parent="1" vertex="1">
          <mxGeometry x="69" y="628" width="767" height="348" as="geometry" />
        </mxCell>
        <mxCell id="UVYFk7r7LEseW1YD5qGI-16" value="&lt;blockquote style=&quot;margin: 0 0 0 40px; border: none; padding: 0px;&quot;&gt;&lt;b style=&quot;&quot;&gt;&lt;font style=&quot;font-size: 32px;&quot;&gt;&amp;nbsp; &amp;nbsp; &amp;nbsp;Program logic error&lt;br&gt;&lt;/font&gt;&lt;/b&gt;&lt;b&gt;&lt;font style=&quot;font-size: 32px;&quot;&gt;Model failed with generation of the proper logic for the following rules:&lt;br&gt;&lt;/font&gt;&lt;/b&gt;&lt;div style=&quot;&quot;&gt;&lt;div style=&quot;&quot;&gt;&lt;font style=&quot;font-size: 32px;&quot;&gt;def r3(pto_time: float, idle_time: float, driving_time: float) -&amp;gt;bool:&lt;/font&gt;&lt;/div&gt;&lt;/div&gt;&lt;span style=&quot;font-size: 32px; background-color: transparent; color: light-dark(rgb(0, 0, 0), rgb(255, 255, 255));&quot;&gt;&amp;nbsp; &amp;nbsp; if pto_time + idle_time + driving_time &amp;gt;= 0:&lt;/span&gt;&lt;br&gt;&lt;blockquote style=&quot;margin: 0 0 0 40px; border: none; padding: 0px;&quot;&gt;&lt;div style=&quot;&quot;&gt;&lt;div style=&quot;&quot;&gt;&lt;font style=&quot;font-size: 32px;&quot;&gt;&lt;br&gt;&lt;/font&gt;&lt;/div&gt;&lt;/div&gt;&lt;/blockquote&gt;&lt;div style=&quot;&quot;&gt;&lt;div style=&quot;&quot;&gt;&lt;font style=&quot;font-size: 32px;&quot;&gt;&amp;nbsp; &amp;nbsp; &amp;nbsp; &amp;nbsp; return True&lt;/font&gt;&lt;/div&gt;&lt;/div&gt;&lt;span style=&quot;font-size: 32px; background-color: transparent; color: light-dark(rgb(0, 0, 0), rgb(255, 255, 255));&quot;&gt;&amp;nbsp; &amp;nbsp; else:&lt;/span&gt;&lt;br&gt;&lt;blockquote style=&quot;margin: 0 0 0 40px; border: none; padding: 0px;&quot;&gt;&lt;div style=&quot;&quot;&gt;&lt;div style=&quot;&quot;&gt;&lt;font style=&quot;font-size: 32px;&quot;&gt;&lt;br&gt;&lt;/font&gt;&lt;/div&gt;&lt;/div&gt;&lt;/blockquote&gt;&lt;div style=&quot;&quot;&gt;&lt;div style=&quot;&quot;&gt;&lt;font style=&quot;font-size: 32px;&quot;&gt;&amp;nbsp; &amp;nbsp; &amp;nbsp; &amp;nbsp; return False&lt;/font&gt;&lt;/div&gt;&lt;/div&gt;&lt;/blockquote&gt;&lt;blockquote style=&quot;margin: 0 0 0 40px; border: none; padding: 0px;&quot;&gt;&lt;div style=&quot;&quot;&gt;&lt;div&gt;&lt;br&gt;&lt;/div&gt;&lt;/div&gt;&lt;/blockquote&gt;" style="text;html=1;align=left;verticalAlign=top;rounded=1;strokeColor=#000000;whiteSpace=wrap;fillColor=#dae8fc;fontSize=24;gradientColor=#7ea6e0;strokeWidth=2;" parent="1" vertex="1">
          <mxGeometry x="1155" y="878" width="1157" height="424" as="geometry" />
        </mxCell>
        <mxCell id="UVYFk7r7LEseW1YD5qGI-17" value="&lt;span style=&quot;font-size: 36px;&quot;&gt;&lt;b&gt;Feedback on error occured&lt;/b&gt;&lt;/span&gt;" style="text;html=1;align=center;verticalAlign=middle;whiteSpace=wrap;rounded=1;strokeColor=#b85450;fillColor=#f8cecc;gradientColor=#ea6b66;" parent="1" vertex="1">
          <mxGeometry x="933" y="297" width="447" height="180" as="geometry" />
        </mxCell>
        <mxCell id="UVYFk7r7LEseW1YD5qGI-18" value="" style="endArrow=classic;html=1;rounded=0;strokeWidth=6;edgeStyle=orthogonalEdgeStyle;exitX=0.5;exitY=1;exitDx=0;exitDy=0;entryX=1;entryY=0.5;entryDx=0;entryDy=0;" parent="1" source="UVYFk7r7LEseW1YD5qGI-17" target="UVYFk7r7LEseW1YD5qGI-15" edge="1">
          <mxGeometry width="50" height="50" relative="1" as="geometry">
            <mxPoint x="1190" y="560" as="sourcePoint" />
            <mxPoint x="1238" y="873" as="targetPoint" />
            <Array as="points">
              <mxPoint x="1157" y="802" />
            </Array>
          </mxGeometry>
        </mxCell>
        <mxCell id="UVYFk7r7LEseW1YD5qGI-20" value="" style="endArrow=classic;html=1;rounded=0;strokeWidth=6;edgeStyle=orthogonalEdgeStyle;exitX=0.5;exitY=1;exitDx=0;exitDy=0;entryX=1;entryY=0.5;entryDx=0;entryDy=0;" parent="1" source="UVYFk7r7LEseW1YD5qGI-17" target="UVYFk7r7LEseW1YD5qGI-14" edge="1">
          <mxGeometry width="50" height="50" relative="1" as="geometry">
            <mxPoint x="1155" y="801" as="sourcePoint" />
            <mxPoint x="834" y="1126" as="targetPoint" />
            <Array as="points">
              <mxPoint x="1157" y="856" />
              <mxPoint x="1118" y="856" />
              <mxPoint x="1118" y="1300" />
            </Array>
          </mxGeometry>
        </mxCell>
        <mxCell id="UVYFk7r7LEseW1YD5qGI-22" value="" style="endArrow=classic;html=1;rounded=0;strokeWidth=6;edgeStyle=orthogonalEdgeStyle;entryX=0.5;entryY=0;entryDx=0;entryDy=0;exitX=0.5;exitY=1;exitDx=0;exitDy=0;" parent="1" source="UVYFk7r7LEseW1YD5qGI-17" target="UVYFk7r7LEseW1YD5qGI-16" edge="1">
          <mxGeometry width="50" height="50" relative="1" as="geometry">
            <mxPoint x="1230" y="588" as="sourcePoint" />
            <mxPoint x="1382" y="712" as="targetPoint" />
            <Array as="points">
              <mxPoint x="1157" y="712" />
              <mxPoint x="1734" y="712" />
            </Array>
          </mxGeometry>
        </mxCell>
      </root>
    </mxGraphModel>
  </diagram>
</mxfile>
